<svg width="79" height="79" viewBox="0 0 79 79" fill="none" xmlns="http://www.w3.org/2000/svg">
<g clip-path="url(#clip0)">
<line y1="-1.5" x2="93.775" y2="-1.5" transform="matrix(0.5 0.866025 0.507763 -0.861497 -37.0995 -0.894257)" stroke="#2AA8A8" stroke-width="3"/>
<line y1="-1.5" x2="93.775" y2="-1.5" transform="matrix(0.5 0.866025 0.507763 -0.861497 -21.212 -0.894257)" stroke="#2AA8A8" stroke-width="3"/>
<line y1="-1.5" x2="93.775" y2="-1.5" transform="matrix(0.5 0.866025 0.507763 -0.861497 -5.32458 -0.894257)" stroke="#2AA8A8" stroke-width="3"/>
<line y1="-1.5" x2="93.775" y2="-1.5" transform="matrix(0.5 0.866025 0.507763 -0.861497 10.5629 -0.894257)" stroke="#2AA8A8" stroke-width="3"/>
<line y1="-1.5" x2="93.775" y2="-1.5" transform="matrix(0.5 0.866025 0.507763 -0.861497 26.4503 -0.894257)" stroke="#2AA8A8" stroke-width="3"/>
<line y1="-1.5" x2="93.775" y2="-1.5" transform="matrix(0.5 0.866025 0.507763 -0.861497 42.3378 -0.894257)" stroke="#2AA8A8" stroke-width="3"/>
<line y1="-1.5" x2="93.775" y2="-1.5" transform="matrix(0.5 0.866025 0.507763 -0.861497 58.2252 -0.894257)" stroke="#2AA8A8" stroke-width="3"/>
<line y1="-1.5" x2="93.775" y2="-1.5" transform="matrix(0.5 0.866025 0.507763 -0.861497 74.1127 -1)" stroke="#2AA8A8" stroke-width="3"/>
</g>
<defs>
<clipPath id="clip0">
<rect width="79" height="79" fill="white" transform="matrix(-1 0 0 1 79 0)"/>
</clipPath>
</defs>
</svg>
