<svg width="79" height="79" viewBox="0 0 79 79" fill="none" xmlns="http://www.w3.org/2000/svg">
<g clip-path="url(#clip0)">
<line y1="-1.5" x2="93.775" y2="-1.5" transform="matrix(-0.5 0.866025 -0.507763 -0.861497 116.099 -0.894257)" stroke="#F06076" stroke-width="3"/>
<line y1="-1.5" x2="93.775" y2="-1.5" transform="matrix(-0.5 0.866025 -0.507763 -0.861497 100.212 -0.894257)" stroke="#F06076" stroke-width="3"/>
<line y1="-1.5" x2="93.775" y2="-1.5" transform="matrix(-0.5 0.866025 -0.507763 -0.861497 84.3246 -0.894257)" stroke="#F06076" stroke-width="3"/>
<line y1="-1.5" x2="93.775" y2="-1.5" transform="matrix(-0.5 0.866025 -0.507763 -0.861497 68.4371 -0.894257)" stroke="#F06076" stroke-width="3"/>
<line y1="-1.5" x2="93.775" y2="-1.5" transform="matrix(-0.5 0.866025 -0.507763 -0.861497 52.5497 -0.894257)" stroke="#F06076" stroke-width="3"/>
<line y1="-1.5" x2="93.775" y2="-1.5" transform="matrix(-0.5 0.866025 -0.507763 -0.861497 36.6622 -0.894257)" stroke="#F06076" stroke-width="3"/>
<line y1="-1.5" x2="93.775" y2="-1.5" transform="matrix(-0.5 0.866025 -0.507763 -0.861497 20.7748 -0.894257)" stroke="#F06076" stroke-width="3"/>
<line y1="-1.5" x2="93.775" y2="-1.5" transform="matrix(-0.5 0.866025 -0.507763 -0.861497 4.88733 -1)" stroke="#F06076" stroke-width="3"/>
</g>
<defs>
<clipPath id="clip0">
<rect width="79" height="79" fill="white"/>
</clipPath>
</defs>
</svg>
